<svg width="24" height="24" viewBox="0 0 24 24" fill="none" xmlns="http://www.w3.org/2000/svg">
<path d="M17.5383 12.3079C14.3149 12.3079 11.6922 14.9307 11.6922 18.1541C11.6922 21.3775 14.3149 24.0002 17.5383 24.0002C20.7617 24.0002 23.3845 21.3775 23.3845 18.1541C23.3845 14.9307 20.7617 12.3079 17.5383 12.3079ZM13.5383 18.1541C13.5383 15.9486 15.3328 14.1541 17.5383 14.1541C18.3063 14.1541 19.0177 14.3818 19.6282 14.7596L14.1438 20.2439C13.7672 19.6335 13.5383 18.9221 13.5383 18.1541ZM17.5383 22.1541C16.7703 22.1541 16.0589 21.9264 15.4485 21.5486L20.9328 16.0642C21.3094 16.6747 21.5383 17.3861 21.5383 18.1541C21.5383 20.3596 19.7438 22.1541 17.5383 22.1541ZM11.3845 11.6926C8.16108 11.6926 5.53831 9.06978 5.53831 5.8464C5.53831 2.62301 8.16108 0.000244141 11.3845 0.000244141C14.6078 0.000244141 17.2306 2.62301 17.2306 5.8464C17.2306 9.06978 14.6078 11.6926 11.3845 11.6926ZM9.846 18.1541C9.846 19.6556 10.2768 21.0587 11.0398 22.2526V23.0772C11.0398 23.5818 10.6214 24.0002 10.1168 24.0002H3.99985C2.12908 24.0002 0.615234 22.4864 0.615234 20.6156C0.615234 16.7141 3.79062 13.5387 7.69216 13.5387H10.1537C10.5352 13.5387 10.8675 13.7726 11.0029 14.1049C10.2645 15.2864 9.846 16.6772 9.846 18.1541Z" fill="black"/>
</svg>
